<?xml version="1.0" encoding="utf-8"?>
<svg viewBox="0 0 800 800">
<circle id="circle" cx="400" cy="400" r="325"/>
<path id="logo" d="M204.6,313.5h48.1v8.4h-38v19.8H244v8.1h-29.3v30.9h-10.1V313.5z M267.6,308.8h10.2v53
	c0,6.4,1.5,10.1,4.6,11.2c1,0.4,2.1,0.6,3.3,0.6c1.2,0,2.2-0.1,3.1-0.4v7.4l-1.9,0.2c-0.6,0.1-1.2,0.1-1.8,0.1
	c-6.5,0-11.2-2-14.1-6.1c-2.2-3.2-3.4-7.5-3.4-13V308.8L267.6,308.8z M296.7,355.7c0-7.8,2.6-14.2,7.9-19c4.9-4.5,11-6.8,18.2-6.8
	c7.1,0,13.1,2.3,17.8,6.8c5.1,4.8,7.6,11.2,7.6,19s-2.6,14.1-7.7,18.9c-4.8,4.6-10.8,6.9-17.8,6.9c-7.1,0-13.2-2.3-18.2-6.9
	C299.3,369.8,296.7,363.5,296.7,355.7z M307.2,355.7c0,8.2,2.8,13.8,8.3,16.8c2,1,4.3,1.5,7.1,1.5c2.8,0,5.1-0.5,7-1.6
	c1.9-1,3.5-2.4,4.7-4.1c2.3-3.3,3.4-7.5,3.4-12.6c0-8.2-2.7-13.8-8.2-16.8c-1.9-1.1-4.2-1.6-6.8-1.6s-4.9,0.5-6.9,1.6
	c-1.9,1-3.5,2.4-4.8,4.1C308.5,346.3,307.2,350.5,307.2,355.7z M363.1,371.8c-1.1-1.8-1.7-2.7-1.7-2.7s-0.3-1.2-1-3.7s-1-5.7-1-9.7
	s0.9-7.7,2.7-11c1.8-3.4,4.2-6.1,7.1-8.3c5.7-4.2,12.7-6.2,21.1-6.2c4.4,0,7.7,0.1,9.9,0.3l4.9,0.5v49.8H396l-0.4-5.7
	c-2,2.6-5.1,4.5-9.3,5.7c-1.6,0.5-3.2,0.7-4.9,0.7c-1.7,0-3.3-0.2-5-0.5c-1.6-0.3-3.2-0.9-4.9-1.6c-1.6-0.7-3.1-1.7-4.6-3
	C365.5,375.2,364.2,373.7,363.1,371.8z M395,338c-2.2-0.3-4.3-0.4-6.5-0.4s-4.4,0.4-6.9,1.1c-2.4,0.7-4.5,1.9-6.3,3.4
	c-3.6,3.2-5.4,8.1-5.4,14.7c0,6.2,1.5,10.9,4.6,13.9c2.3,2.2,5.1,3.3,8.4,3.3c4.2,0,7.7-1.5,10.5-4.4c0.7-0.7,1.2-1.4,1.5-2L395,338
	L395,338z M440.3,373c1.1,0.4,2.8,0.6,5.1,0.6c2.3,0,4.2-0.3,5.7-0.8v7.7c-0.7,0.2-1.7,0.3-3.1,0.3l-3.2,0.1c-0.7,0-1.3,0-1.6,0
	c-6.5,0-11.4-2-14.5-6.1c-2.5-3.3-3.8-7.6-3.8-13v-23.6h-7.5v-4.5l7.5-2.8l2.4-12.4h7.7V331h16.3v7.4H435V362
	C435,368.2,436.8,371.8,440.3,373z M476.6,316.3c0,1.9-0.6,3.3-1.9,4.2c-1.3,1-2.9,1.5-4.8,1.5s-3.5-0.5-4.7-1.5s-1.9-2.4-1.9-4.2
	c0-1.9,0.6-3.3,1.9-4.2c1.2-1,2.8-1.4,4.7-1.4c1.9,0,3.5,0.5,4.8,1.4C476,313.2,476.6,314.5,476.6,316.3z M464.7,330.8h10.2v49.8
	h-10.2V330.8z M514.5,338.5c-5,0-9.5,1.6-13.5,4.9v37.4h-10.2V331h9.4l0.7,5.4c5.5-4.1,11.2-6.2,17.1-6.2c6.2,0,10.8,1.8,13.7,5.3
	c3,3.7,4.6,9.8,4.6,18.1v27.2h-10.2v-27.2c0-8-2.3-12.7-6.8-14.3C517.9,338.7,516.3,338.5,514.5,338.5z M581.4,399.8
	c-2.9,0.7-6.7,1.1-11.4,1.1c-4.6,0-8-0.3-10.1-1v-8.6c2.7,1.1,6,1.6,9.8,1.7c3.9,0,6.7-0.2,8.6-0.7c1.8-0.5,3.3-1.4,4.3-2.5
	c1.9-2.1,2.8-5.9,2.8-11.3v-2.6c-2.6,2.4-6,4.2-10.2,5.1c-1.7,0.4-3.4,0.6-5.1,0.6s-3.3-0.2-5-0.5c-1.6-0.4-3.2-0.9-4.8-1.7
	c-1.6-0.8-3.1-1.8-4.6-3.1c-1.5-1.3-2.7-2.9-3.9-4.8c-2.5-4.1-3.8-9.2-3.8-15.2c-0.1-5.6,1.6-10.5,5.1-14.7c3-3.7,7.1-6.5,12.3-8.5
	c4.7-1.9,9.9-2.8,15.4-2.8s10.4,0.3,14.6,0.8v47.4C595.6,390.3,590.9,397.5,581.4,399.8z M585.4,338c-2.2-0.3-4.3-0.4-6.4-0.4
	c-2.1,0-4.5,0.4-7.1,1.1c-2.6,0.7-4.9,1.9-6.9,3.4c-4.3,3.3-6.5,8-6.5,14.1c0,6.6,1.7,11.4,5,14.4c2.5,2.3,5.6,3.4,9.2,3.4
	c4.4,0,8-1.5,11-4.4c0.7-0.7,1.2-1.4,1.5-2V338H585.4z M300.8,490c-3.4,0.6-7.9,0.9-13.5,0.9c-5.7,0-10.8-0.7-15.3-2.2
	c-4.6-1.5-8.5-3.7-11.8-6.6c-7-6.2-10.6-14.9-10.6-26c0-7.2,1.8-13.5,5.4-18.8c4.9-7.2,12.4-11.7,22.6-13.7
	c3.1-0.6,6.8-0.9,11.2-0.9s7.8,0.2,10.4,0.7v9.2c-2.4-0.7-6-1.1-11-1.1s-9.2,0.6-12.6,1.7c-3.5,1.2-6.3,2.8-8.6,5
	c-4.5,4.2-6.8,10.2-6.8,17.9c0,7.8,2.2,13.9,6.7,18.4c4.8,4.9,11.8,7.3,20.9,7.3c5.3,0,9.7-0.4,13.1-1.2v9.4H300.8z M310.1,465.4
	c0-7.8,2.6-14.2,7.9-19c4.9-4.5,11-6.8,18.2-6.8c7.1,0,13.1,2.3,17.8,6.8c5.1,4.8,7.6,11.2,7.6,19s-2.6,14.1-7.7,18.9
	c-4.8,4.6-10.8,6.9-17.8,6.9c-7.1,0-13.2-2.3-18.2-6.9C312.7,479.5,310.1,473.3,310.1,465.4z M320.7,465.4c0,8.2,2.8,13.8,8.3,16.8
	c2,1,4.3,1.5,7.1,1.5s5.1-0.5,7-1.6c1.9-1,3.5-2.4,4.7-4.1c2.3-3.3,3.4-7.5,3.4-12.6c0-8.2-2.7-13.8-8.2-16.8
	c-1.9-1.1-4.2-1.6-6.8-1.6s-4.9,0.5-6.9,1.6c-1.9,1-3.5,2.4-4.8,4.1C321.9,456,320.7,460.3,320.7,465.4z M376.4,418.5h10.1v53
	c0,6.4,1.5,10.1,4.6,11.2c1,0.4,2.1,0.6,3.3,0.6s2.2-0.1,3.1-0.4v7.4l-1.9,0.2c-0.6,0.1-1.2,0.1-1.8,0.1c-6.5,0-11.2-2-14.1-6.1
	c-2.2-3.2-3.4-7.5-3.4-13v-53H376.4z M405.5,465.4c0-7.8,2.6-14.2,7.9-19c4.9-4.5,11-6.8,18.2-6.8c7.1,0,13.1,2.3,17.8,6.8
	c5.1,4.8,7.6,11.2,7.6,19s-2.6,14.1-7.7,18.9c-4.8,4.6-10.8,6.9-17.8,6.9c-7.1,0-13.2-2.3-18.2-6.9
	C408.1,479.5,405.5,473.3,405.5,465.4z M416,465.4c0,8.2,2.8,13.8,8.3,16.8c2,1,4.3,1.5,7.1,1.5s5.1-0.5,7-1.6
	c1.9-1,3.5-2.4,4.7-4.1c2.3-3.3,3.4-7.5,3.4-12.6c0-8.2-2.7-13.8-8.2-16.8c-1.9-1.1-4.2-1.6-6.8-1.6s-4.9,0.5-6.9,1.6
	c-1.9,1-3.5,2.4-4.8,4.1C417.3,456,416,460.3,416,465.4z M502.9,449.5c-1.9-0.5-4.1-0.8-6.7-0.8s-4.7,0.2-6.4,0.7s-3.1,1.1-4.4,1.8
	c-2.3,1.3-4,2.7-5,4.3v34.9h-10.2v-49.8h9.8l0.4,6.9c2.5-3,6.3-5.3,11.1-6.8c1.8-0.6,3.8-0.9,6-0.9c2.3,0,4,0.2,5.3,0.5v9.2H502.9z
	 M525.8,491.2c-4.2,0-8.5-0.3-12.9-0.9v-8.5c4.4,1,8.9,1.5,13.4,1.5c9.1,0,13.6-1.8,13.6-5.5c0-1.4-0.4-2.4-1.1-3.1
	c-1.1-1.1-2.7-2.1-5-3.2l-7.4-3.2c-4.8-2.3-7.9-4.1-9.3-5.5c-2.7-2.6-4-5.6-4-9.2c0-4,1.9-7.2,5.8-9.8c4.2-2.7,10.1-4.1,17.7-4.1
	c3.8,0,7.7,0.3,11.6,0.8v8.3c-4.3-0.7-8-1.1-11.2-1.1s-5.6,0.2-7.4,0.6c-1.7,0.4-3.1,0.9-3.9,1.4c-1.4,0.9-2.1,2.1-2.1,3.5
	c0,1.4,0.5,2.6,1.4,3.5c1,0.9,2.5,1.8,4.5,2.9l7.5,3.4c4.9,2.4,8,4.3,9.4,5.6c2.6,2.4,4,5.5,4,9.2c0,4-2.1,7.1-6.3,9.6
	C539.8,489.9,533.6,491.2,525.8,491.2z"/>
</svg>
